inDegrees=yes
name=ik_S55_A06_T03
DataType=double
version=3
OpenSimVersion=4.3-2021-08-27-4bc7ad9
endheader
time	pelvis_tilt	pelvis_list	pelvis_rotation	pelvis_tx	pelvis_ty	pelvis_tz	hip_flexion_r	hip_adduction_r	hip_rotation_r	knee_angle_r	knee_angle_r_beta	ankle_angle_r	subtalar_angle_r	mtp_angle_r	hip_flexion_l	hip_adduction_l	hip_rotation_l	knee_angle_l	knee_angle_l_beta	ankle_angle_l	subtalar_angle_l	mtp_angle_l	lumbar_extension	lumbar_bending	lumbar_rotation	arm_flex_r	arm_add_r	arm_rot_r	elbow_flex_r	pro_sup_r	wrist_flex_r	wrist_dev_r	arm_flex_l	arm_add_l	arm_rot_l	elbow_flex_l	pro_sup_l	wrist_flex_l	wrist_dev_l
7.159999999999935	-4.597499640551203	-0.6266473661082727	28.747442905025	0	0.9399999999999999	0	42.36011880804614	-10.65092793756192	-10.33234268764391	53.07552660134073	0.9263426914232317	0	0	0	42.36011880804614	-10.65092793756192	-10.33234268764391	53.07552660134073	0.9263426914232317	0	0	0	-1.86110689298705	-1.163908622088074	-5.05277831783456	16.44991594437239	-17.91662242412844	-8.297183934461692	57.74044404445706	118.2952710392575	0	0	4.610570058049037	-30.26478574427045	-19.89157729037237	104.0203854920185	111.0010058632126	0	0
7.179999999999935	-4.596568648191409	-0.6279588506997577	28.81803017231828	0	0.9399999999999999	0	42.36139209180757	-10.64983257064931	-10.33198399653718	53.07614792744873	0.9263535356095448	0	0	0	42.36139209180757	-10.64983257064931	-10.33198399653718	53.07614792744873	0.9263535356095448	0	0	0	-1.862471191058086	-1.161481125797418	-5.113555806773039	16.50139862329495	-17.87695756522109	-8.317520059231697	57.67305946651027	118.3451836750608	0	0	5.777733174427953	-30.75045691479605	-20.16212167864325	103.4307166109574	110.8283516570088	0	0
7.199999999999934	-4.569682918966922	-0.5968555196605171	28.92585635054881	0	0.9399999999999999	0	42.3620392158999	-10.64927878752677	-10.33180230289283	53.076465039377	0.9263590702567904	0	0	0	42.3620392158999	-10.64927878752677	-10.33180230289283	53.076465039377	0.9263590702567904	0	0	0	-1.824965938678463	-1.14246821435117	-5.223058721094726	16.43554015223364	-17.91929542962292	-8.300930678658466	57.71333728473266	118.3253532712926	0	0	6.91206310340297	-31.20140347976541	-20.86645845767083	103.3938894784532	111.167769763339	0	0
7.219999999999934	-4.543888147195696	-0.506376738117312	28.93922327695226	0	0.9399999999999999	0	42.36325867290669	-10.64823219838184	-10.33145920823835	53.07706055109522	0.9263694638970075	0	0	0	42.36325867290669	-10.64823219838184	-10.33145920823835	53.07706055109522	0.9263694638970075	0	0	0	-1.759897920258782	-1.071283179465362	-5.324309148950758	16.38440372760586	-17.99780742195723	-8.178576607729269	57.67169685470808	118.3202770155754	0	0	8.035072339598287	-31.59019747284027	-21.23179994288567	102.1960949657747	110.6728672217504	0	0
7.239999999999934	-4.541357495317912	-0.4794958459711916	29.03256906865065	0	0.9399999999999999	0	42.36459063021788	-10.64708906583133	-10.33108438958684	53.07771037335237	0.9263808054349475	0	0	0	42.36459063021788	-10.64708906583133	-10.33108438958684	53.07771037335237	0.9263808054349475	0	0	0	-1.746356052119277	-1.042139642786013	-5.467187736161491	16.41541462667682	-18.00073283352449	-8.115474859882355	57.64067865184246	118.3333462916882	0	0	9.366672665672674	-31.94538600185773	-21.9103674109672	100.9917565536854	110.7680508516586	0	0
7.259999999999933	-4.524958053650511	-0.4620126943125017	29.12063010508884	0	0.9399999999999999	0	42.36578660820332	-10.64606535541841	-10.33074835901507	53.07829474638736	0.9263910046684679	0	0	0	42.36578660820332	-10.64606535541841	-10.33074835901507	53.07829474638736	0.9263910046684679	0	0	0	-1.724800135710358	-1.030247562501929	-5.557681511186112	16.40471806307673	-18.01579326261222	-8.145375171028414	57.62053346144484	118.3567807193701	0	0	10.59646395608923	-32.33370296659329	-22.27591313803247	99.64995841651405	110.3077942051704	0	0
7.279999999999933	-4.526679987203072	-0.4582037826405796	29.19743410573787	0	0.9399999999999999	0	42.3667836270939	-10.64521565446122	-10.33046898640349	53.07878349394711	0.9263995349225966	0	0	0	42.3667836270939	-10.64521565446122	-10.33046898640349	53.07878349394711	0.9263995349225966	0	0	0	-1.725359934772277	-1.02251518629106	-5.643390693800161	16.43005041500283	-18.00373818934207	-8.171590351021145	57.59927912470048	118.4023924605192	0	0	11.77332047924062	-32.7643885619982	-22.53631639693879	98.213219047145	109.2487831640806	0	0
7.299999999999932	-4.485675161896141	-0.3849915567078573	29.15608241071851	0	0.9399999999999999	0	42.36765104490848	-10.64447797728559	-10.33022623779929	53.07920927733969	0.9264069662446975	0	0	0	42.36765104490848	-10.64447797728559	-10.33022623779929	53.07920927733969	0.9264069662446975	0	0	0	-1.654336974090371	-0.9762790954990336	-5.716774722896265	16.35380689535318	-18.08493809180547	-8.069624244359343	57.57712773695427	118.4051230723447	0	0	12.74011240160492	-33.17751126585063	-22.72227783692791	96.91693118145554	108.2928809262205	0	0
7.319999999999932	-4.458993787497182	-0.3576082874509713	29.06298193996593	0	0.9399999999999999	0	42.36925192478616	-10.64311661305973	-10.32977814819886	53.07999430400698	0.9264206675447577	0	0	0	42.36925192478616	-10.64311661305973	-10.32977814819886	53.07999430400698	0.9264206675447577	0	0	0	-1.617818566888622	-0.9694878589451402	-5.60696707593815	16.2883285403826	-18.12441596285728	-8.145674022085368	57.55120918722077	118.4243664654642	0	0	14.0077928185441	-33.51265173619134	-22.24479061110534	95.18672706318281	106.6448390347514	0	0
7.339999999999931	-4.446029240373794	-0.3265855155644991	28.88037051289128	0	0.9399999999999999	0	42.37063601260247	-10.64194139998802	-10.32939103512777	53.08067317801257	0.9264325161313615	0	0	0	42.37063601260247	-10.64194139998802	-10.32939103512777	53.08067317801257	0.9264325161313615	0	0	0	-1.589758251896422	-0.952927060301332	-5.402467539342483	16.22508181631299	-18.16180117795673	-8.178291493163531	57.54197872192476	118.4364104380587	0	0	15.43090775906396	-33.60865535007341	-21.32073716616934	93.30140002916322	105.2950255263342	0	0
7.359999999999931	-4.446128095446915	-0.298987711013435	28.70481393277859	0	0.9399999999999999	0	42.37174207724858	-10.64100386815333	-10.32908197657304	53.0812160727933	0.9264419914327771	0	0	0	42.37174207724858	-10.64100386815333	-10.32908197657304	53.0812160727933	0.9264419914327771	0	0	0	-1.574530250452435	-0.9369928209511831	-5.173791429636262	16.18750180015927	-18.23150507346625	-8.190768476080017	57.5424094640282	118.4486374872797	0	0	16.88470741428174	-33.55056724489347	-20.10570253356419	91.4199595618044	104.4219656137869	0	0
